<svg viewBox="0 0 330 200" xmlns="http://www.w3.org/2000/svg"><g><g><g><g><g><line x1="60" y1="177" x2="55" y2="177" style="visibility: inherit;" fill="rgb(0, 0, 0)" stroke="rgb(204, 204, 204)" stroke-width="1px"></line><line x1="60" y1="157.33333333333331" x2="55" y2="157.33333333333331" style="visibility: inherit;" fill="rgb(0, 0, 0)" stroke="rgb(204, 204, 204)" stroke-width="1px"></line><line x1="60" y1="137.66666666666666" x2="55" y2="137.66666666666666" style="visibility: inherit;" fill="rgb(0, 0, 0)" stroke="rgb(204, 204, 204)" stroke-width="1px"></line><line x1="60" y1="118.00000000000001" x2="55" y2="118.00000000000001" style="visibility: inherit;" fill="rgb(0, 0, 0)" stroke="rgb(204, 204, 204)" stroke-width="1px"></line><line x1="60" y1="98.33333333333334" x2="55" y2="98.33333333333334" style="visibility: inherit;" fill="rgb(0, 0, 0)" stroke="rgb(204, 204, 204)" stroke-width="1px"></line><line x1="60" y1="78.66666666666666" x2="55" y2="78.66666666666666" style="visibility: inherit;" fill="rgb(0, 0, 0)" stroke="rgb(204, 204, 204)" stroke-width="1px"></line><line x1="60" y1="58.999999999999986" x2="55" y2="58.999999999999986" style="visibility: inherit;" fill="rgb(0, 0, 0)" stroke="rgb(204, 204, 204)" stroke-width="1px"></line><line x1="60" y1="39.33333333333335" x2="55" y2="39.33333333333335" style="visibility: inherit;" fill="rgb(0, 0, 0)" stroke="rgb(204, 204, 204)" stroke-width="1px"></line><line x1="60" y1="19.666666666666657" x2="55" y2="19.666666666666657" style="visibility: inherit;" fill="rgb(0, 0, 0)" stroke="rgb(204, 204, 204)" stroke-width="1px"></line><line x1="60" y1="0" x2="55" y2="0" style="visibility: inherit;" fill="rgb(0, 0, 0)" stroke="rgb(204, 204, 204)" stroke-width="1px"></line></g><g transform="translate(50, 0)"><text x="0" y="177" dx="0em" dy="0.3em" style="text-anchor: end; visibility: hidden; font-family: Roboto, sans-serif; font-size: 12px; font-weight: 200;" fill="rgb(33, 33, 33)" stroke="none" stroke-width="1px">-0.02</text><text x="0" y="157.33333333333331" dx="0em" dy="0.3em" style="text-anchor: end; visibility: inherit; font-family: Roboto, sans-serif; font-size: 12px; font-weight: 200;" fill="rgb(33, 33, 33)" stroke="none" stroke-width="1px">0</text><text x="0" y="137.66666666666666" dx="0em" dy="0.3em" style="text-anchor: end; visibility: hidden; font-family: Roboto, sans-serif; font-size: 12px; font-weight: 200;" fill="rgb(33, 33, 33)" stroke="none" stroke-width="1px">0.02</text><text x="0" y="118.00000000000001" dx="0em" dy="0.3em" style="text-anchor: end; visibility: inherit; font-family: Roboto, sans-serif; font-size: 12px; font-weight: 200;" fill="rgb(33, 33, 33)" stroke="none" stroke-width="1px">0.04</text><text x="0" y="98.33333333333334" dx="0em" dy="0.3em" style="text-anchor: end; visibility: hidden; font-family: Roboto, sans-serif; font-size: 12px; font-weight: 200;" fill="rgb(33, 33, 33)" stroke="none" stroke-width="1px">0.06</text><text x="0" y="78.66666666666666" dx="0em" dy="0.3em" style="text-anchor: end; visibility: inherit; font-family: Roboto, sans-serif; font-size: 12px; font-weight: 200;" fill="rgb(33, 33, 33)" stroke="none" stroke-width="1px">0.08</text><text x="0" y="58.999999999999986" dx="0em" dy="0.3em" style="text-anchor: end; visibility: hidden; font-family: Roboto, sans-serif; font-size: 12px; font-weight: 200;" fill="rgb(33, 33, 33)" stroke="none" stroke-width="1px">0.1</text><text x="0" y="39.33333333333335" dx="0em" dy="0.3em" style="text-anchor: end; visibility: inherit; font-family: Roboto, sans-serif; font-size: 12px; font-weight: 200;" fill="rgb(33, 33, 33)" stroke="none" stroke-width="1px">0.12</text><text x="0" y="19.666666666666657" dx="0em" dy="0.3em" style="text-anchor: end; visibility: hidden; font-family: Roboto, sans-serif; font-size: 12px; font-weight: 200;" fill="rgb(33, 33, 33)" stroke="none" stroke-width="1px">0.14</text><text x="0" y="0" dx="0em" dy="0.3em" style="text-anchor: end; visibility: hidden; font-family: Roboto, sans-serif; font-size: 12px; font-weight: 200;" fill="rgb(33, 33, 33)" stroke="none" stroke-width="1px">0.16</text></g><line x1="60" y1="0" x2="60" y2="177" fill="rgb(0, 0, 0)" stroke="rgb(204, 204, 204)" stroke-width="1px"></line></g></g><g transform="translate(60, 0)" clip-path="url(#clip_0)"><clipPath id="clip_0"><rect width="270" height="177"></rect></clipPath><g><g><g><line x1="0" y1="0" x2="0" y2="177" fill="rgb(0, 0, 0)" stroke="rgb(66, 66, 66)" stroke-width="1px" opacity="0.25"></line><line x1="22.5" y1="0" x2="22.5" y2="177" fill="rgb(0, 0, 0)" stroke="rgb(66, 66, 66)" stroke-width="1px" opacity="0.25"></line><line x1="45" y1="0" x2="45" y2="177" fill="rgb(0, 0, 0)" stroke="rgb(66, 66, 66)" stroke-width="1px" opacity="0.25"></line><line x1="67.5" y1="0" x2="67.5" y2="177" fill="rgb(0, 0, 0)" stroke="rgb(66, 66, 66)" stroke-width="1px" opacity="0.25"></line><line x1="90" y1="0" x2="90" y2="177" fill="rgb(0, 0, 0)" stroke="rgb(66, 66, 66)" stroke-width="1px" opacity="0.25"></line><line x1="112.5" y1="0" x2="112.5" y2="177" fill="rgb(0, 0, 0)" stroke="rgb(66, 66, 66)" stroke-width="1px" opacity="0.25"></line><line x1="135" y1="0" x2="135" y2="177" fill="rgb(0, 0, 0)" stroke="rgb(66, 66, 66)" stroke-width="1px" opacity="0.25"></line><line x1="157.5" y1="0" x2="157.5" y2="177" fill="rgb(0, 0, 0)" stroke="rgb(66, 66, 66)" stroke-width="1px" opacity="0.25"></line><line x1="180" y1="0" x2="180" y2="177" fill="rgb(0, 0, 0)" stroke="rgb(66, 66, 66)" stroke-width="1px" opacity="0.25"></line><line x1="202.5" y1="0" x2="202.5" y2="177" fill="rgb(0, 0, 0)" stroke="rgb(66, 66, 66)" stroke-width="1px" opacity="0.25"></line><line x1="225" y1="0" x2="225" y2="177" fill="rgb(0, 0, 0)" stroke="rgb(66, 66, 66)" stroke-width="1px" opacity="0.25"></line><line x1="247.5" y1="0" x2="247.5" y2="177" fill="rgb(0, 0, 0)" stroke="rgb(66, 66, 66)" stroke-width="1px" opacity="0.25"></line><line x1="270" y1="0" x2="270" y2="177" fill="rgb(0, 0, 0)" stroke="rgb(66, 66, 66)" stroke-width="1px" opacity="0.25"></line></g><g><line x1="0" y1="177" x2="270" y2="177" fill="rgb(0, 0, 0)" stroke="rgb(66, 66, 66)" stroke-width="1px" opacity="0.25"></line><line x1="0" y1="157.33333333333331" x2="270" y2="157.33333333333331" fill="rgb(0, 0, 0)" stroke="rgb(66, 66, 66)" stroke-width="1px" opacity="0.25"></line><line x1="0" y1="137.66666666666666" x2="270" y2="137.66666666666666" fill="rgb(0, 0, 0)" stroke="rgb(66, 66, 66)" stroke-width="1px" opacity="0.25"></line><line x1="0" y1="118.00000000000001" x2="270" y2="118.00000000000001" fill="rgb(0, 0, 0)" stroke="rgb(66, 66, 66)" stroke-width="1px" opacity="0.25"></line><line x1="0" y1="98.33333333333334" x2="270" y2="98.33333333333334" fill="rgb(0, 0, 0)" stroke="rgb(66, 66, 66)" stroke-width="1px" opacity="0.25"></line><line x1="0" y1="78.66666666666666" x2="270" y2="78.66666666666666" fill="rgb(0, 0, 0)" stroke="rgb(66, 66, 66)" stroke-width="1px" opacity="0.25"></line><line x1="0" y1="58.999999999999986" x2="270" y2="58.999999999999986" fill="rgb(0, 0, 0)" stroke="rgb(66, 66, 66)" stroke-width="1px" opacity="0.25"></line><line x1="0" y1="39.33333333333335" x2="270" y2="39.33333333333335" fill="rgb(0, 0, 0)" stroke="rgb(66, 66, 66)" stroke-width="1px" opacity="0.25"></line><line x1="0" y1="19.666666666666657" x2="270" y2="19.666666666666657" fill="rgb(0, 0, 0)" stroke="rgb(66, 66, 66)" stroke-width="1px" opacity="0.25"></line><line x1="0" y1="0" x2="270" y2="0" fill="rgb(0, 0, 0)" stroke="rgb(66, 66, 66)" stroke-width="1px" opacity="0.25"></line></g></g></g><g><g><line x1="0" y1="157.33333333333331" x2="270" y2="157.33333333333331" fill="rgb(0, 0, 0)" stroke="rgb(153, 153, 153)" stroke-width="1.5px"></line></g></g><g><g><line x1="22.5" y1="0" x2="22.5" y2="177" fill="rgb(0, 0, 0)" stroke="rgb(153, 153, 153)" stroke-width="1.5px"></line></g></g><g><g><g><g><g><path stroke="rgb(0, 119, 187)" stroke-width="2px" d="M22.5,50.81418508291245L23.625,47.63972280484934L24.75,39.73217255982006L25.875,41.10358639841207L27,41.31107117129496L28.125,43.11781839131069L29.25,39.85375233169359L30.375,47.393725548059415L31.5,55.23756750654234L32.625,60.806208450652406L33.75,64.36524291131734L34.875,66.90943822818802L36,68.16204008034971L37.125,68.7516713041416L38.25,69.3282484471776L39.375,69.98568642566245L40.5,70.40126600554117L41.625,70.6686228225559L42.75,72.83707192700163L43.875,75.99665769801948L45,80.61814855841226L46.125,98.27905033679099L47.25,108.07659597327968L48.375,116.26969958080679L49.5,120.7928075457857L50.625,123.89726028161208L51.75,126.05414843817415L52.875,127.36511820451226L54,128.18440462971586L55.125,128.69631512698518L56.25,129.02177150485736L57.375,129.1671114591467L58.5,129.31714080907324L59.625,129.44241746856534L60.75,129.48895407156934L61.875,129.53193545695842L63,129.51885844574247L64.125,129.51431937795707L65.25,129.46831373879093L66.375,129.4626595298897L67.5,129.4346392966354L68.625,129.44291203223335L69.75,129.2792445594752L70.875,129.38118605464578L72,129.36615121900812L73.125,129.2578106509962L74.25,129.39945267065806L75.375,129.478976780721L76.5,129.32169699045713L77.625,129.12086474024707L78.75,129.11563317352602L79.875,129.253163393085L81,129.29540681535696L82.125,129.3728882940295L83.25,129.5040792060902L84.375,129.4568902288681L85.5,129.48457328288592L86.625,129.52529870753787L87.75,129.42267213335813L88.875,129.4899515215825L90,129.4164433879219L91.125,129.44188806330538L92.25,129.62005819975562L93.375,129.4780698742423L94.5,129.48131830052256L95.625,129.37760668678513L96.75,129.42245145350753L97.875,129.47603668199017L99,129.5631790767672L100.125,129.63262075447415L101.25,129.63273039617164L102.375,129.6733837281149L103.5,129.63133403238544L104.625,129.691581373375L105.75,129.6455744112301L106.875,129.7586496505003L108,129.63671235091653L109.125,129.72853180327317L110.25,129.72938463871657L111.375,130.44579300106554L112.5,137.9527240027248L113.625,143.05977772139565L114.75,147.1174714683526L115.875,149.7037798176378L117,151.20395726932605L118.125,152.14475761170547L119.25,152.79895476570195L120.375,153.19471691516318L121.5,153.42324670651672L122.625,153.57416084159883L123.75,153.6813811965876L124.875,153.71481878706376L126,153.75355643737203L127.125,153.71728609632433L128.25,153.74067633795082L129.375,153.77173997697386L130.5,153.7638348725169L131.625,153.74935007326675L132.75,153.7022844956167L133.875,153.73889124465572L135,153.7240972586577L136.125,153.71481800640504L137.25,153.7516293078182L22.5,118.44481716053791L23.625,94.9147595494813L24.75,81.95666767933923L25.875,80.50153369970494L27,94.28976923982722L28.125,103.34484524584069L29.25,111.45031988455607L30.375,113.87496265769255L31.5,119.03767668108294L32.625,120.65812616388091L33.75,122.479740037561L34.875,124.23653406990003L36,124.66117638801991L37.125,125.06395954065796L38.25,125.67369332913523L39.375,126.44723334612826L40.5,126.9417597360554L41.625,127.53470700376089L42.75,127.9522545356126L43.875,128.18151523581574L45,128.0745243409957L46.125,128.34246867774044L47.25,127.78154050237804L48.375,127.85895034726582L49.5,127.62460301949255L50.625,127.94761387984158L51.75,126.59767961688958L52.875,126.97677395555252L54,126.986136691647L55.125,127.56586162758504L56.25,127.68233167337954L57.375,127.73302877867765L58.5,127.4266082798911L59.625,128.35488876087305L60.75,136.09868817358912L61.875,142.2384648526492L63,146.04317751716766L64.125,148.63508981009042L65.25,149.73186564903784L66.375,150.71407582004167L67.5,151.6578086693692L68.625,152.2748295184488L69.75,152.67599297214633L70.875,152.87643666567357L72,153.04356164759568L73.125,153.18424688469074L74.25,153.1243958155505L75.375,153.12269893245053L76.5,153.0362893630931L77.625,153.0256031774155L78.75,153.1295168571028L79.875,153.1633415415547L81,153.17507434989483L82.125,152.935370630282L83.25,152.941272993763L84.375,152.6422688997565L85.5,152.6532437905239L86.625,152.34590310916207L87.75,152.6395438304935L88.875,152.87240019811554L90,152.97353537181039L91.125,152.93928056338837L92.25,153.1148159576222L93.375,153.24210908051916L94.5,153.22693585514477L95.625,153.23982725077045L96.75,153.28749868405265L97.875,153.31525442853015L99,153.35995591494108L100.125,153.3174234156817L101.25,153.39189495611996L102.375,153.2984287291148L103.5,153.34761788294983L104.625,153.2512954368717L105.75,153.2586031153019L106.875,153.35910455978458L108,153.29105827145702L109.125,153.38072667100536L110.25,153.37113041154646L111.375,153.4114898064063L112.5,153.41170286086657L113.625,153.38335772237156L114.75,153.45646092417175L115.875,153.4124397872478L117,153.4206914373392L118.125,153.43142552459165L119.25,153.46577591394737L120.375,153.5207809597101L121.5,153.50895545956072L122.625,153.47892118775295L123.75,153.41833549807535L124.875,153.3213753061199L126,153.33246484836167L127.125,153.39070854821935L128.25,153.4401109542671L129.375,153.55975727415174L130.5,153.61823060847226L131.625,153.651417253523L132.75,153.65047655402657L133.875,153.67051160200856L135,153.68025530961555L136.125,153.63597097939444L137.25,153.6677954863654L138.375,153.6757029544128L139.5,153.65751221830524L140.625,153.6879752931041L141.75,153.5935897081321L142.875,153.50417855923726L144,153.45861234431177L145.125,153.57863444523343L146.25,153.55259349233702L147.375,153.58057769347803L148.5,153.6230933258384L149.625,153.5477892763833L150.75,153.60251290041475L151.875,153.651581196119L153,153.67041537178335L154.125,153.69908806378808L155.25,153.71043485985052L156.375,153.75624514211228L157.5,153.7302200790212L158.625,153.74316638708905L159.75,153.76585869845474L160.875,153.71412191827133L162,153.61130563192984L163.125,153.65983932261966L164.25,153.52499561721766L165.375,153.51126226401635L166.5,153.50537979740437L167.625,153.63895481503874L168.75,153.4687854399892L169.875,153.51846667190318L171,153.61830411346955L172.125,153.64025498015505L173.25,153.75603719496175L174.375,153.8090206489942L175.5,153.8220793036584L176.625,153.77973448844287L177.75,153.8397799395464L178.875,153.83577427208573L180,153.85873350943467L181.125,153.86732626189496L182.25,153.85861339643918L183.375,153.85081630719398L184.5,153.8829708183916L185.625,153.8935310923002L186.75,153.88677369012336L187.875,153.86830381580782L189,153.86223782231068L190.125,153.87237928419356L191.25,153.87165500120992L192.375,153.85622712827478L193.5,153.8095639823159L194.625,153.84885188298605L195.75,153.7701781498448L196.875,153.83879547794498L198,153.8425841792216L199.125,153.83274703691643L200.25,153.81148677661662L201.375,153.87439699092792L202.5,153.71862219543826L203.625,153.65198120729818L204.75,153.67416765669003L205.875,153.7872762334462L207,153.74794875886485L208.125,153.66011903220283L209.25,153.7272177963984L210.375,153.77004999650958L211.5,153.83945424851095L212.625,153.82447596655825L213.75,153.84673391360712L214.875,153.81483009429974L216,153.77565805454626L217.125,153.84895751113686L218.25,153.81973193694895L219.375,153.87280517975088L220.5,153.89169265424965L221.625,153.95622618975693L222.75,153.97301526940836L223.875,153.97275912826194L225,153.97043865951608L226.125,153.97671556666123L227.25,153.99154375715082L228.375,153.98793898680623L229.5,153.9969215086504L230.625,153.9894288219976L231.75,153.98593317260645L232.875,153.98458857100886L234,153.9774746002084L235.125,153.97259537877346L236.25,153.99080305690342L237.375,153.98271326366182L238.5,153.98712445011603L239.625,153.96741216674718L240.75,153.99135468337352L241.875,153.97165103986907L243,153.99561714800475L244.125,153.9836700202611L245.25,153.9156770197006L246.375,153.87721788442096L22.5,102.48019507064001L23.625,71.64198138237144L24.75,53.13905316941031L25.875,42.03729624163362L27,35.37624208496759L28.125,31.379609590968006L29.25,28.98163009456824L30.375,27.542842396728368L31.5,26.67956977802448L32.625,26.16160620680212L33.75,25.8508280640687L34.875,25.66436117842867L36,25.552481047044648L37.125,25.485352968214222L38.25,25.445076120915974L39.375,25.42091001253702L40.5,25.406410347509656L41.625,25.397710548493233L42.75,25.392490669083372L43.875,25.389358741437444L45,25.387479584849913L46.125,25.386352090897397L47.25,25.385675594525893L48.375,25.385269696702988L49.5,25.38502615800922L50.625,25.384880034792985L51.75,25.384792360863234L52.875,25.384739756505397L54,25.384708193890667L55.125,25.384689256321852L56.25,25.38467789378054L57.375,25.384671076255756L58.5,25.38466698574089L59.625,25.384664531431966L60.75,25.38466305884661L61.875,25.38466217529542L63,25.384661645164677L64.125,25.384661327086263L65.25,25.38466113623921L66.375,25.384661021730956L67.5,25.384660953025996L68.625,25.384660911803024L69.75,25.384660887069263L70.875,25.384660872229006L72,25.384660863324825L73.125,25.384660857982343L74.25,25.384660854776822L75.375,25.384660852853543L76.5,25.384660851699582L77.625,25.38466085100718L78.75,25.384660850591757L79.875,25.384660850342488L81,25.384660850192923L82.125,25.384660850103177L83.25,25.384660850049354L84.375,25.38466085001705L85.5,25.384660849997672L86.625,25.384660849986037L87.75,25.384660849979042L88.875,25.384660849974875L90,25.38466084997236L91.125,25.384660849970867L92.25,25.384660849969965L93.375,25.384660849969414L94.5,25.38466084996908L95.625,25.384660849968903L96.75,25.384660849968785L97.875,25.384660849968707L99,25.384660849968647L100.125,25.384660849968625L101.25,25.384660849968625L102.375,25.384660849968625L103.5,25.384660849968625L104.625,25.384660849968625L105.75,25.384660849968625L106.875,25.384660849968625L108,25.384660849968625L109.125,25.384660849968625L110.25,25.384660849968625L111.375,25.384660849968625L112.5,25.384660849968625L113.625,25.384660849968625L114.75,25.384660849968625L115.875,25.384660849968625L117,25.384660849968625L118.125,25.384660849968625L119.25,25.384660849968625L120.375,25.384660849968625L121.5,25.384660849968625L122.625,25.384660849968625L123.75,25.384660849968625L124.875,25.384660849968625L126,25.384660849968625L127.125,25.384660849968625L128.25,25.384660849968625L129.375,25.384660849968625L130.5,25.384660849968625L131.625,25.384660849968625L132.75,25.384660849968625L133.875,25.384660849968625L135,25.384660849968625L136.125,25.384660849968625L137.25,25.384660849968625L138.375,25.384660849968625L139.5,25.384660849968625L140.625,25.384660849968625L141.75,25.384660849968625L142.875,25.384660849968625L144,25.384660849968625L145.125,25.384660849968625L146.25,25.384660849968625L147.375,25.384660849968625L148.5,25.384660849968625L149.625,25.384660849968625L150.75,25.384660849968625L151.875,25.384660849968625L153,25.384660849968625L154.125,25.384660849968625L155.25,25.384660849968625L156.375,25.384660849968625L157.5,25.384660849968625L158.625,25.384660849968625L159.75,25.384660849968625L160.875,25.384660849968625L162,25.384660849968625L163.125,25.384660849968625L164.25,25.384660849968625L165.375,25.384660849968625L166.5,25.384660849968625L167.625,25.384660849968625L168.75,25.384660849968625L169.875,25.384660849968625L171,25.384660849968625L172.125,25.384660849968625L173.25,25.384660849968625L174.375,25.384660849968625L175.5,25.384660849968625L176.625,25.384660849968625L177.75,25.384660849968625L178.875,25.384660849968625L180,25.384660849968625L181.125,25.384660849968625L182.25,25.384660849968625L183.375,25.384660849968625L184.5,25.384660849968625L185.625,25.384660849968625L186.75,25.384660849968625L187.875,25.384660849968625L189,25.384660849968625L190.125,25.384660849968625L191.25,25.384660849968625L192.375,25.384660849968625L193.5,25.384660849968625L194.625,25.384660849968625L195.75,25.384660849968625L196.875,25.384660849968625L198,25.384660849968625L199.125,25.384660849968625L200.25,25.384660849968625L201.375,25.384660849968625L202.5,25.384660849968625L203.625,25.384660849968625L204.75,25.384660849968625L205.875,25.384660849968625L207,25.384660849968625L208.125,25.384660849968625L209.25,25.384660849968625L210.375,25.384660849968625L211.5,25.384660849968625L212.625,25.384660849968625L213.75,25.384660849968625L214.875,25.384660849968625L216,25.384660849968625L217.125,25.384660849968625L218.25,25.384660849968625L219.375,25.384660849968625L220.5,25.384660849968625L221.625,25.384660849968625L222.75,25.384660849968625L223.875,25.384660849968625L225,25.384660849968625L226.125,25.384660849968625L227.25,25.384660849968625L228.375,25.384660849968625L229.5,25.384660849968625L230.625,25.384660849968625L231.75,25.384660849968625L232.875,25.384660849968625L234,25.384660849968625L235.125,25.384660849968625L236.25,25.384660849968625L237.375,25.384660849968625L238.5,25.384660849968625L239.625,25.384660849968625L240.75,25.384660849968625L241.875,25.384660849968625L243,25.384660849968625L244.125,25.384660849968625L245.25,25.384660849968625L246.375,25.384660849968625L22.5,25.384660849968625" style="fill: none;" fill="none"></path></g><g><path stroke="rgb(255, 112, 67)" stroke-width="2px" d="M22.5,33.08978159228962L23.625,36.35442732771238L24.75,36.698932797933104L25.875,37.05672647340187L27,39.128003404478555L28.125,42.53476901524664L29.25,44.79886949088474L30.375,47.245509635815594L31.5,47.16245812514866L32.625,53.30929509167378L33.75,58.75380138589472L34.875,62.117252230452316L36,64.66690313101445L37.125,66.49935826329646L38.25,69.74486617736285L39.375,69.3509638366021L40.5,69.9930114224304L41.625,69.85826234082509L42.75,70.14268860530187L43.875,70.9985207180134L45,77.80045808264637L46.125,89.90924360503709L47.25,101.33425355367537L48.375,111.39636069320012L49.5,118.36472008362202L50.625,122.81333140011742L51.75,125.8056496334868L52.875,127.79107466687066L54,129.10507479604L55.125,129.96807129564579L56.25,130.53095943426624L57.375,130.89717000525394L58.5,131.12149291544168L59.625,131.26878990739812L60.75,131.36001147741072L61.875,131.41450777555485L63,131.4518160603069L64.125,131.4720053076474L65.25,131.45849548970997L66.375,131.42060923091677L67.5,131.34795755497018L68.625,131.2891393508314L69.75,131.10405056903178L70.875,130.99117375796715L72,130.8792914328996L73.125,130.84021264183417L74.25,130.82783776194543L75.375,130.83664301735595L76.5,130.89228787344234L77.625,130.90540995292793L78.75,130.95089989061935L79.875,131.0258118176807L81,131.12390324509255L82.125,131.20804152261888L83.25,131.25086326820661L84.375,131.25969459616942L85.5,131.26447028768342L86.625,131.2574238102771L87.75,131.20324449963192L88.875,131.19476312335425L90,131.21314443361416L91.125,131.24209067401284L92.25,131.24733248657182L93.375,131.22714810504235L94.5,131.2247149235033L95.625,131.17605978365876L96.75,131.16899317323848L97.875,131.17813634963642L99,131.20628209119127L100.125,131.21320709162006L101.25,131.20072382781734L102.375,131.201913460655L103.5,131.17908530556934L104.625,131.18423485482006L105.75,131.21682215317645L106.875,131.24948586524263L108,131.26443475634298L109.125,131.2773295784023L110.25,131.26833589488427L111.375,131.2902202836523L112.5,136.90449979544778L113.625,142.96680483492372L114.75,147.48594048340664L115.875,150.83843512675267L117,153.09857482505004L118.125,154.57725553329706L119.25,155.53283559973374L120.375,156.16460046061948L121.5,156.57327369335349L122.625,156.80394951072898L123.75,156.96342509872738L124.875,157.06377413139163L126,157.12934144486277L127.125,157.15863123405455L128.25,157.15999270220436L129.375,157.1769384960698L130.5,157.20268618347603L131.625,157.22255494439042L132.75,157.2176748013237L133.875,157.1961457821329L135,157.16587385323882L136.125,157.1489582051104L137.25,157.1496347690588L22.5,107.72003662814491L23.625,87.29166568257287L24.75,74.61482549868747L25.875,70.26884819763535L27,75.07148013530751L28.125,87.37180255066501L29.25,97.9194672398437L30.375,106.91551899468912L31.5,113.74447301460911L32.625,118.87111437678502L33.75,121.23318359271784L34.875,123.61498287429072L36,125.80851265058712L37.125,127.16973772207378L38.25,127.6714322535762L39.375,127.95857862394465L40.5,128.48728429085858L41.625,129.13414533023146L42.75,129.6902351568189L43.875,130.046803114715L45,130.28913004273343L46.125,130.3548625428925L47.25,130.2964439940125L48.375,130.1450664158664L49.5,129.88639414544912L50.625,129.5685936956764L51.75,129.3058208753165L52.875,128.66952319321013L54,128.58443904644437L55.125,128.57453657523504L56.25,128.58789210867312L57.375,128.60403260897453L58.5,128.70490793026002L59.625,129.14348877004693L60.75,136.69355440655494L61.875,143.28300243205317L63,147.82202796062472L64.125,150.91024893953042L65.25,153.04172605916418L66.375,154.30863512527057L67.5,155.02802803654387L68.625,155.5828599495494L69.75,156.02952590657966L70.875,156.350127392003L72,156.59466113046557L73.125,156.7645970658394L74.25,156.8727617447277L75.375,156.87941827117075L76.5,156.88754466825085L77.625,156.91871552084555L78.75,156.92606809285522L79.875,156.8886560331586L81,156.80278065856987L82.125,156.68711171140538L83.25,156.39326915409822L84.375,156.27107552573082L85.5,156.0720650388834L86.625,156.09795929281512L87.75,156.14527329940384L88.875,156.30676257287917L90,156.48990838317164L91.125,156.63007054069428L92.25,156.7483035559393L93.375,156.8128194708091L94.5,156.88128360795625L95.625,156.91851504116096L96.75,156.94380850254922L97.875,156.95845814289402L99,156.981095186013L100.125,156.95045826939864L101.25,156.95002637077928L102.375,156.9556709397353L103.5,156.9421613559066L104.625,156.92964371365284L105.75,156.90528709199495L106.875,156.8858712562823L108,156.8976692133706L109.125,156.92412381987046L110.25,156.9654244265936L111.375,157.00008210002463L112.5,157.0130139383532L113.625,157.0189460536321L114.75,156.99973764012324L115.875,157.00180516680214L117,157.02279534483347L118.125,157.02346013089868L119.25,157.02691320875857L120.375,157.03176954699114L121.5,157.02010726261295L122.625,156.92069616269652L123.75,156.88144465532787L124.875,156.82662969445505L126,156.78880226356415L127.125,156.782298577921L128.25,156.8503749799977L129.375,156.92375948887536L130.5,157.00330521356165L131.625,157.0589894782656L132.75,157.11429137878787L133.875,157.13333316560954L135,157.13044960420635L136.125,157.134466298861L137.25,157.10260131883277L138.375,157.09611078514283L139.5,157.10925385203186L140.625,157.12641471389523L141.75,157.1377374770891L142.875,157.13703966915347L144,157.12792635124904L145.125,157.12168212797573L146.25,157.13812132590638L147.375,157.14759582977015L148.5,157.14142657027114L149.625,157.13742548483657L150.75,157.14114749243933L151.875,157.14859147610383L153,157.15529320375407L154.125,157.16155367027943L155.25,157.17225713861936L156.375,157.19140219601266L157.5,157.21226542810425L158.625,157.2279930164108L159.75,157.2364010567126L160.875,157.21851855701354L162,157.19026551737883L163.125,157.12264287373654L164.25,157.04448068973255L165.375,156.98765847120035L166.5,156.93386299665715L167.625,156.92943032946258L168.75,156.90443220204628L169.875,156.89133962164075L171,156.93168868821712L172.125,156.9660184452312L173.25,157.01255780333355L174.375,157.07836593406032L175.5,157.13989223959408L176.625,157.18308620474127L177.75,157.21144805171312L178.875,157.23469679616116L180,157.25594783923714L181.125,157.27172935273245L182.25,157.28617617618318L183.375,157.29550861556982L184.5,157.29553354055042L185.625,157.29421790318938L186.75,157.29406087960896L187.875,157.29172612225548L189,157.28950983761905L190.125,157.27845257382137L191.25,157.26838940683828L192.375,157.26088256545742L193.5,157.25259712595727L194.625,157.24151031801904L195.75,157.22712695072553L196.875,157.19796162594432L198,157.18553982383096L199.125,157.15709195241234L200.25,157.1240342680781L201.375,157.09332749106778L202.5,157.08575492852188L203.625,157.03171917207465L204.75,157.01208552182575L205.875,157.02453480371383L207,156.95801373416842L208.125,156.88768150710732L209.25,156.80765187039677L210.375,156.81749237409738L211.5,156.8826959741814L212.625,156.91201215424854L213.75,156.97239860628372L214.875,157.0300902424804L216,157.02682063392425L217.125,157.0673674332531L218.25,157.1201031187586L219.375,157.15216650232816L220.5,157.1898216245877L221.625,157.22855236253776L222.75,157.25978061975945L223.875,157.282060241129L225,157.29759173150788L226.125,157.30573547407027L227.25,157.31124817475012L228.375,157.31620534187266L229.5,157.3195911742864L230.625,157.32202197707582L231.75,157.32326559119613L232.875,157.32332583186704L234,157.32314831034668L235.125,157.31970418028342L236.25,157.31639414528908L237.375,157.3151440229644L238.5,157.3122339367118L239.625,157.3048093314016L240.75,157.29631742612935L241.875,157.2830914209231L243,157.25538308332574L244.125,157.23016497556077L245.25,157.2205322510402L246.375,157.207862093061L22.5,102.18569839835752L23.625,68.34050749246629L24.75,48.03339294893158L25.875,35.84911250056394L27,28.53855595379015L28.125,24.152222025725877L29.25,21.520415807763914L30.375,19.94133793811016L31.5,18.99389121631791L32.625,18.425423183242547L33.75,18.08433650227391L34.875,17.87968449369271L36,17.756905010790813L37.125,17.68321387655607L38.25,17.63901091826205L39.375,17.612489143285625L40.5,17.59657607829975L41.625,17.587034100431666L42.75,17.581303052587373L43.875,17.577870285004217L45,17.57580476333091L46.125,17.57456545032693L47.25,17.573821862524532L48.375,17.57336984871972L49.5,17.57309864043683L50.625,17.572935915467095L51.75,17.57284414160867L52.875,17.572794938417005L54,17.5727595553786L55.125,17.57273832555554L56.25,17.57271972653832L57.375,17.5727144282514L58.5,17.572717110402625L59.625,17.572712858569943L60.75,17.572710307470356L61.875,17.572714637934002L63,17.572711375088787L64.125,17.57270941738167L65.25,17.57271410388079L66.375,17.572722776903674L67.5,17.572710397347187L68.625,17.572708830736687L69.75,17.57270202964699L70.875,17.572703810116593L72,17.572699017274953L73.125,17.572707863816785L74.25,17.572707310618462L75.375,17.572712839822863L76.5,17.57271615734552L77.625,17.57271814785911L78.75,17.57271934216728L79.875,17.57271419762874L81,17.572711110905615L82.125,17.572715119995152L83.25,17.57271752544889L84.375,17.572718968721105L85.5,17.57271983468446L86.625,17.57272035426249L87.75,17.57271480488588L88.875,17.572705614136517L90,17.572705960810282L91.125,17.572712029937964L92.25,17.572715671414574L93.375,17.57270613405372L94.5,17.572706272760623L95.625,17.572712217108172L96.75,17.572709922593283L97.875,17.57271440700776L99,17.572711236533042L100.125,17.57270933424822L101.25,17.572714054000734L102.375,17.572722746975636L103.5,17.57271037939037L104.625,17.572714681086012L105.75,17.5727172621034L106.875,17.572707088467034L108,17.572700984285202L109.125,17.57269732177609L110.25,17.57270098539403L111.375,17.572703183564798L112.5,17.572704502467264L113.625,17.57270529380876L114.75,17.572711629737064L115.875,17.572709570170616L117,17.572714195554152L118.125,17.572716970784274L119.25,17.572718635922385L120.375,17.57271377388184L121.5,17.572716717780896L122.625,17.5727126229969L123.75,17.57272188837333L124.875,17.572715725352396L126,17.572712027539843L127.125,17.57271566997573L128.25,17.572717855437233L129.375,17.572713305590742L130.5,17.572704714559432L131.625,17.572705421064054L132.75,17.572705844966805L133.875,17.57270609930847L135,17.57271211303689L136.125,17.572698137903718L137.25,17.572707336194032L138.375,17.57271285516821L139.5,17.57271616655272L140.625,17.572712292259997L141.75,17.572709967684407L142.875,17.572702711815644L144,17.57269835829436L145.125,17.572701607305014L146.25,17.572697695587987L147.375,17.572701209681178L148.5,17.572697457013692L149.625,17.57270692765999L150.75,17.57271847117118L151.875,17.572707813907684L153,17.572713141796417L154.125,17.57270461628282L155.25,17.5727053620981L156.375,17.57270580958724L157.5,17.572711939204137L158.625,17.57270389472746L159.75,17.572704929164853L160.875,17.57269968870391L162,17.572702405550732L163.125,17.572709896782257L164.25,17.572708530397716L165.375,17.57271357169045L166.5,17.57271073534266L167.625,17.572709033533975L168.75,17.572713873572177L169.875,17.572710916471692L171,17.572709142211416L172.125,17.572708077655232L173.25,17.57270743892154L174.375,17.572707055681313L175.5,17.57270096461378L176.625,17.57270903222007L177.75,17.572708011660414L178.875,17.572707399324628L180,17.57271289304655L181.125,17.5727103281563L182.25,17.57271465034558L183.375,17.57271138253575L184.5,17.572709421849865L185.625,17.572708245438285L186.75,17.57270753959138L187.875,17.57270125495981L189,17.57270920642769L190.125,17.572702255061596L191.25,17.572709806488767L192.375,17.572702615098258L193.5,17.57271002251077L194.625,17.572714466958242L195.75,17.572717133626764L196.875,17.572712872504432L198,17.572710315831067L199.125,17.57270878182701L200.25,17.572707861424618L201.375,17.572701448059767L202.5,17.57270932228767L203.625,17.572702324577588L204.75,17.572703987074966L205.875,17.572704984573374L207,17.572711444195846L208.125,17.572715319969305L209.25,17.57271764543341L210.375,17.57271904071184L211.5,17.572719877878914L212.625,17.572714519055754L213.75,17.57271130376182L214.875,17.572709374585482L216,17.572696494832872L217.125,17.572706350351506L218.25,17.5727122636627L219.375,17.572721672772822L220.5,17.572715595992094L221.625,17.57271194992363L222.75,17.572709762282546L223.875,17.572708449697917L225,17.572701801023722L226.125,17.572697811819236L227.25,17.572701279419917L228.375,17.572703359980334L229.5,17.572692886069788L230.625,17.57271004621706L231.75,17.572708620058602L232.875,17.572707764363557L234,17.572707250946532L235.125,17.572706942896314L236.25,17.57270675806616L237.375,17.57271250829149L238.5,17.572715958426684L239.625,17.572712167384395L240.75,17.57270989275902L241.875,17.572702666860405L243,17.57271005356805L244.125,17.5727086244692L245.25,17.572719489256723L246.375,17.572720147005853L22.5,17.5727205416553" style="fill: none;" fill="none"></path></g></g></g></g><g opacity="0.2"><g><g><g><path stroke="rgb(0, 119, 187)" stroke-width="2px" d="M22.5,50.81418508291245L23.625,45.73504543801149L24.75,32.14092432459195L25.875,42.71636907259623L27,41.58196329077085L28.125,45.617200225591674L29.25,35.186085641384125L30.375,58.387078881263726L31.5,66.80571080744265L32.625,69.07499126096565L33.75,69.67151442170143L34.875,70.71188580493131L36,70.03685289621352L37.125,69.63496299088L38.25,70.19243641694385L39.375,70.97137971719106L40.5,71.02445951600869L41.625,71.06959016621113L42.75,76.0894152422746L43.875,80.73574755589166L45,87.55013139545918L46.125,124.76982186486323L47.25,122.77272099256514L48.375,128.55925793697438L49.5,127.57743734493852L50.625,128.55392614627877L51.75,129.28947515413165L52.875,129.331570841372L54,129.41333351284266L55.125,129.46418058996397L56.25,129.50995596374074L57.375,129.38512136166293L58.5,129.5421848160525L59.625,129.63033244883022L60.75,129.55875897407532L61.875,129.59640753393373L63,129.49924292912084L64.125,129.50751077632108L65.25,129.399305280298L66.375,129.45417821655673L67.5,129.39260894681018L68.625,129.45532113562027L69.75,129.03374335045618L70.875,129.53409829735756L72,129.34359896555543L73.125,129.09529979899526L74.25,129.61191570013762L75.375,129.59826294581094L76.5,129.08577730506659L77.625,128.81961636493602L78.75,129.10778582344452L79.875,129.4594587224225L81,129.3587719487647L82.125,129.48911051203808L83.25,129.70086557418108L84.375,129.38610676303506L85.5,129.52609786391258L86.625,129.5863868445158L87.75,129.26873227208853L88.875,129.59087060391903L90,129.30618118743104L91.125,129.48005507638055L92.25,129.88731340443096L93.375,129.26508738597235L94.5,129.48619093994301L95.625,129.222039266179L96.75,129.48971860359114L97.875,129.55641452471417L99,129.69389266893268L100.125,129.73678327103454L101.25,129.63289485871792L102.375,129.7343637260298L103.5,129.56825948879123L104.625,129.78195238485932L105.75,129.57656396801272L106.875,129.9282625094056L108,129.45380640154085L109.125,129.8662609818081L110.25,129.7306638918817L111.375,131.52040554458895L112.5,149.21312050521374L113.625,150.7203582994019L114.75,153.20401208878806L115.875,153.58324234156558L117,153.45422344685844L118.125,153.55595812527463L119.25,153.78025049669668L120.375,153.78836013935506L121.5,153.766041393547L122.625,153.80053204422197L123.75,153.84221172907078L124.875,153.76497517277798L126,153.81166291283444L127.125,153.6628805847528L128.25,153.77576170039052L129.375,153.81833543550846L130.5,153.7519772158315L131.625,153.72762287439159L132.75,153.6316861291416L133.875,153.7938013682142L135,153.70190627966076L136.125,153.700899128026L137.25,153.8068462599379L22.5,65.48459893961747L23.625,59.61967313289642L24.75,62.51952987412611L25.875,78.31883273025353L27,114.97212255001068L28.125,116.92745925486088L29.25,123.6085318426291L30.375,117.51192681739725L31.5,126.78174771616855L32.625,123.08880038807787L33.75,125.21216084808111L34.875,126.87172511840858L36,125.2981398651997L37.125,125.66813426961501L38.25,126.58829401185115L39.375,127.6075433716178L40.5,127.68354932094611L41.625,128.42412790531912L42.75,128.57857583339018L43.875,128.52540628612041L45,127.9140379987657L46.125,128.7443851828575L47.25,126.94014823933443L48.375,127.97506511459748L49.5,127.27308202783266L50.625,128.43213017036518L51.75,124.57277822246154L52.875,127.54541546354692L54,127.00018079578875L55.125,128.43544903149208L56.25,127.85703674207132L57.375,127.80907443662485L58.5,126.96697753171127L59.625,129.74730948234597L60.75,147.71438729266328L61.875,151.44812987123927L63,151.75024651394537L64.125,152.52295824947456L65.25,151.37702940745902L66.375,152.18739107654739L67.5,153.0734079433605L68.625,153.20036079206815L69.75,153.2777381526927L70.875,153.17710220596445L72,153.2942491204788L73.125,153.39527474033335L74.25,153.03461921184015L75.375,153.1201536078006L76.5,152.90667500905693L77.625,153.00957389889905L78.75,153.2853873766338L79.875,153.21407856823257L81,153.19267356240502L82.125,152.57581505086273L83.25,152.95012653898448L84.375,152.19376275874674L85.5,152.669706126675L86.625,151.8848920871193L87.75,153.08000491249066L88.875,153.22168474954861L90,153.12523813235265L91.125,152.88789835075536L92.25,153.37811904897293L93.375,153.4330487648646L94.5,153.20417601708323L95.625,153.25916434420893L96.75,153.35900583397597L97.875,153.3568880452464L99,153.42700814455748L100.125,153.25362466679266L101.25,153.5036022667773L102.375,153.15822938860705L103.5,153.42140161370236L104.625,153.10681176775446L105.75,153.26956463294724L106.875,153.5098567265086L108,153.18898883896568L109.125,153.51522927032784L110.25,153.35673602235815L111.375,153.47202889869612L112.5,153.41202244255692L113.625,153.34084001462907L114.75,153.56611572687206L115.875,153.34640808186182L117,153.4330689124763L118.125,153.44752665547034L119.25,153.51730149798095L120.375,153.6032885283542L121.5,153.49121720933664L122.625,153.43386978004128L123.75,153.32745696355897L124.875,153.17593501818678L126,153.34909916172424L127.125,153.4780740980059L128.25,153.51421456333873L129.375,153.7392267539787L130.5,153.70594060995307L131.625,153.7011972210991L132.75,153.6490655047819L133.875,153.70056417398155L135,153.69487087102607L136.125,153.56954448406276L137.25,153.71553224682188L138.375,153.68756415648386L139.5,153.6302261141439L140.625,153.7336699053024L141.75,153.45201133067408L142.875,153.37006183589497L144,153.3902630219236L145.125,153.75866759661585L146.25,153.51353206299245L147.375,153.62255399518958L148.5,153.68686677437896L149.625,153.43483320220062L150.75,153.68459833646193L151.875,153.72518363967538L153,153.69866663527986L154.125,153.7420971017952L155.25,153.72745505394414L156.375,153.8249605655049L157.5,153.69118248438463L158.625,153.76258584919074L159.75,153.79989716550335L160.875,153.6365167479962L162,153.4570812024176L163.125,153.73263985865438L164.25,153.32273005911458L165.375,153.49066223421445L166.5,153.49655609748635L167.625,153.83931734149033L168.75,153.21353137741485L169.875,153.59298851977414L171,153.76806027581915L172.125,153.6731812801833L173.25,153.92971051717177L174.375,153.8884958300429L175.5,153.8416672856547L176.625,153.71621726561958L177.75,153.92984811620167L178.875,153.82976577089477L180,153.89317236545807L181.125,153.88021539058536L182.25,153.84554409825554L183.375,153.83912067332614L184.5,153.93120258518803L185.625,153.90937150316313L186.75,153.87663758685812L187.875,153.84059900433445L189,153.85313883206496L190.125,153.88759147701785L191.25,153.8705685767345L192.375,153.83308531887207L193.5,153.73956926337752L194.625,153.9077837339913L195.75,153.65216755013293L196.875,153.94172147009522L198,153.84826723113656L199.125,153.81799132345867L200.25,153.7795963861669L201.375,153.96876231239486L202.5,153.4849600022038L203.625,153.55201972508803L204.75,153.70744733077782L205.875,153.95693909858042L207,153.68895754699287L208.125,153.5283744422098L209.25,153.82786594269174L210.375,153.83429829667634L211.5,153.943560626513L212.625,153.8020085436292L213.75,153.88012083418047L214.875,153.76697436533868L216,153.71689999491596L217.125,153.95890669602278L218.25,153.77589357566708L219.375,153.9524150439538L220.5,153.9200238659978L221.625,154.05302649301785L222.75,153.9981988888855L223.875,153.97237491654232L225,153.9669579563973L226.125,153.98613092737892L227.25,154.01378604288524L228.375,153.98253183128932L229.5,154.01039529141661L230.625,153.97818979201838L231.75,153.9806896985198L232.875,153.98257166861248L234,153.96680364400768L235.125,153.96527654662108L236.25,154.01811457409832L237.375,153.97057857379937L238.5,153.9937412297974L239.625,153.93784374169383L240.75,154.027268458313L241.875,153.9420955746124L243,154.0315663102083L244.125,153.9657493286456L245.25,153.8136875188599L246.375,153.8195291815015L22.5,25.384660849968586L23.625,25.384660849968586L24.75,25.384660849968586L25.875,25.384660849968586L27,25.384660849968586L28.125,25.384660849968586L29.25,25.384660849968586L30.375,25.384660849968586L31.5,25.384660849968586L32.625,25.384660849968586L33.75,25.384660849968586L34.875,25.384660849968586L36,25.384660849968586L37.125,25.384660849968586L38.25,25.384660849968586L39.375,25.384660849968586L40.5,25.384660849968586L41.625,25.384660849968586L42.75,25.384660849968586L43.875,25.384660849968586L45,25.384660849968586L46.125,25.384660849968586L47.25,25.384660849968586L48.375,25.384660849968586L49.5,25.384660849968586L50.625,25.384660849968586L51.75,25.384660849968586L52.875,25.384660849968586L54,25.384660849968586L55.125,25.384660849968586L56.25,25.384660849968586L57.375,25.384660849968586L58.5,25.384660849968586L59.625,25.384660849968586L60.75,25.384660849968586L61.875,25.384660849968586L63,25.384660849968586L64.125,25.384660849968586L65.25,25.384660849968586L66.375,25.384660849968586L67.5,25.384660849968586L68.625,25.384660849968586L69.75,25.384660849968586L70.875,25.384660849968586L72,25.384660849968586L73.125,25.384660849968586L74.25,25.384660849968586L75.375,25.384660849968586L76.5,25.384660849968586L77.625,25.384660849968586L78.75,25.384660849968586L79.875,25.384660849968586L81,25.384660849968586L82.125,25.384660849968586L83.25,25.384660849968586L84.375,25.384660849968586L85.5,25.384660849968586L86.625,25.384660849968586L87.75,25.384660849968586L88.875,25.384660849968586L90,25.384660849968586L91.125,25.384660849968586L92.25,25.384660849968586L93.375,25.384660849968586L94.5,25.384660849968586L95.625,25.384660849968586L96.75,25.384660849968586L97.875,25.384660849968586L99,25.384660849968586L100.125,25.384660849968586L101.25,25.384660849968586L102.375,25.384660849968586L103.5,25.384660849968586L104.625,25.384660849968586L105.75,25.384660849968586L106.875,25.384660849968586L108,25.384660849968586L109.125,25.384660849968586L110.25,25.384660849968586L111.375,25.384660849968586L112.5,25.384660849968586L113.625,25.384660849968586L114.75,25.384660849968586L115.875,25.384660849968586L117,25.384660849968586L118.125,25.384660849968586L119.25,25.384660849968586L120.375,25.384660849968586L121.5,25.384660849968586L122.625,25.384660849968586L123.75,25.384660849968586L124.875,25.384660849968586L126,25.384660849968586L127.125,25.384660849968586L128.25,25.384660849968586L129.375,25.384660849968586L130.5,25.384660849968586L131.625,25.384660849968586L132.75,25.384660849968586L133.875,25.384660849968586L135,25.384660849968586L136.125,25.384660849968586L137.25,25.384660849968586L138.375,25.384660849968586L139.5,25.384660849968586L140.625,25.384660849968586L141.75,25.384660849968586L142.875,25.384660849968586L144,25.384660849968586L145.125,25.384660849968586L146.25,25.384660849968586L147.375,25.384660849968586L148.5,25.384660849968586L149.625,25.384660849968586L150.75,25.384660849968586L151.875,25.384660849968586L153,25.384660849968586L154.125,25.384660849968586L155.25,25.384660849968586L156.375,25.384660849968586L157.5,25.384660849968586L158.625,25.384660849968586L159.75,25.384660849968586L160.875,25.384660849968586L162,25.384660849968586L163.125,25.384660849968586L164.25,25.384660849968586L165.375,25.384660849968586L166.5,25.384660849968586L167.625,25.384660849968586L168.75,25.384660849968586L169.875,25.384660849968586L171,25.384660849968586L172.125,25.384660849968586L173.25,25.384660849968586L174.375,25.384660849968586L175.5,25.384660849968586L176.625,25.384660849968586L177.75,25.384660849968586L178.875,25.384660849968586L180,25.384660849968586L181.125,25.384660849968586L182.25,25.384660849968586L183.375,25.384660849968586L184.5,25.384660849968586L185.625,25.384660849968586L186.75,25.384660849968586L187.875,25.384660849968586L189,25.384660849968586L190.125,25.384660849968586L191.25,25.384660849968586L192.375,25.384660849968586L193.5,25.384660849968586L194.625,25.384660849968586L195.75,25.384660849968586L196.875,25.384660849968586L198,25.384660849968586L199.125,25.384660849968586L200.25,25.384660849968586L201.375,25.384660849968586L202.5,25.384660849968586L203.625,25.384660849968586L204.75,25.384660849968586L205.875,25.384660849968586L207,25.384660849968586L208.125,25.384660849968586L209.25,25.384660849968586L210.375,25.384660849968586L211.5,25.384660849968586L212.625,25.384660849968586L213.75,25.384660849968586L214.875,25.384660849968586L216,25.384660849968586L217.125,25.384660849968586L218.25,25.384660849968586L219.375,25.384660849968586L220.5,25.384660849968586L221.625,25.384660849968586L222.75,25.384660849968586L223.875,25.384660849968586L225,25.384660849968586L226.125,25.384660849968586L227.25,25.384660849968586L228.375,25.384660849968586L229.5,25.384660849968586L230.625,25.384660849968586L231.75,25.384660849968586L232.875,25.384660849968586L234,25.384660849968586L235.125,25.384660849968586L236.25,25.384660849968586L237.375,25.384660849968586L238.5,25.384660849968586L239.625,25.384660849968586L240.75,25.384660849968586L241.875,25.384660849968586L243,25.384660849968586L244.125,25.384660849968586L245.25,25.384660849968586L246.375,25.384660849968586L22.5,25.384660849968586" style="fill: none;" fill="none"></path></g><g><path stroke="rgb(255, 112, 67)" stroke-width="2px" d="M22.5,33.08978159228962L23.625,38.313214768966034L24.75,37.029658049345024L25.875,37.47749183575312L27,41.83226256569227L28.125,47.24755229055882L29.25,48.03656939665477L30.375,50.81273445487023L31.5,47.03997327884039L32.625,62.436631609996155L33.75,66.8711795558532L34.875,67.14412474632263L36,68.48305442929268L37.125,69.24445099135238L38.25,74.60931307574113L39.375,68.76038813591003L40.5,70.95581110815206L41.625,69.6561729311943L42.75,70.56928467253843L43.875,72.28219066063562L45,88.00299109518528L46.125,108.07202344387768L47.25,118.47154290974139L48.375,126.48940220723547L49.5,128.8172096411387L50.625,129.48622940356532L51.75,130.29411932701865L52.875,130.76920916885138L54,131.0760737794141L55.125,131.26256556808949L56.25,131.37529145553708L57.375,131.44648578887185L58.5,131.45797725394368L59.625,131.48973538478214L60.75,131.49684382850927L61.875,131.49625222136578L63,131.5077784868578L64.125,131.50228917847076L65.25,131.43823076287904L66.375,131.36377984285355L67.5,131.23898004119596L68.625,131.200912044694L69.75,130.82641739646593L70.875,130.82185854141912L72,130.71146794532737L73.125,130.78159445524216L74.25,130.80927544211346L75.375,130.8498509004712L76.5,130.97575515757006L77.625,130.9250930721561L78.75,131.01913479715586L79.875,131.13817970827222L81,131.2710403862099L82.125,131.3342489389082L83.25,131.3150958865881L84.375,131.2729415881137L85.5,131.27163382495445L86.625,131.24685409416753L87.75,131.12197553366423L88.875,131.18204105893773L90,131.24071639900407L91.125,131.2855100346108L92.25,131.2551952054103L93.375,131.19687153274813L94.5,131.22106515119472L95.625,131.10307707389194L96.75,131.15839325760803L97.875,131.19185111423334L99,131.24850070352355L100.125,131.22359459226328L101.25,131.18199893211326L102.375,131.20369790991145L103.5,131.14484307294092L104.625,131.19195917869607L105.75,131.2657031007111L106.875,131.2984814333419L108,131.2868580929935L109.125,131.29667181149125L110.25,131.2548453696072L111.375,131.32304686680436L112.5,145.32591906314096L113.625,152.06026239413768L114.75,154.26464395613098L115.875,155.86717709177174L117,156.4887843724961L118.125,156.79527659566764L119.25,156.9662056993887L120.375,157.1122477519481L121.5,157.18628354245448L122.625,157.14996323679225L123.75,157.202638480725L124.875,157.21429768038797L126,157.2276924150695L127.125,157.20256591784226L128.25,157.16203490442908L129.375,157.20235718686794L130.5,157.24130771458536L131.625,157.25235808576204L132.75,157.21035458672364L133.875,157.1638522533467L135,157.12046595989767L136.125,157.12358473291778L137.25,157.15064961498138L22.5,33.57563941677412L23.625,56.64910926421482L24.75,55.599565222859376L25.875,63.74988224605719L27,82.27542804181576L28.125,105.82228617370129L29.25,113.7409642736117L30.375,120.40959662695725L31.5,123.98790404448906L32.625,126.56107642004885L33.75,124.77628741661707L34.875,127.18768179665007L36,129.0988073150317L37.125,129.21157532930374L38.25,128.4239740508298L39.375,128.3892981794973L40.5,129.2803427912295L41.625,130.1044368892908L42.75,130.5243698967L43.875,130.5816550515592L45,130.65262043476105L46.125,130.4534612931311L47.25,130.20881617069244L48.375,129.91800004864734L49.5,129.49838573982316L50.625,129.0918930210173L51.75,128.91166164477667L52.875,127.7150766700506L54,128.4568128262957L55.125,128.55968286842108L56.25,128.60792540883025L57.375,128.62824335942668L58.5,128.8562209121883L59.625,129.80136002972722L60.75,148.01865286131698L61.875,153.1671744703005L63,154.63056625348204L64.125,155.54258040788892L65.25,156.2389417386148L66.375,156.20899872443016L67.5,156.10711740345386L68.625,156.41510781905768L69.75,156.69952484212507L70.875,156.831029620138L72,156.96146173815941L73.125,157.0195009689002L74.25,157.03500876306012L75.375,156.88940306083532L76.5,156.899734263871L77.625,156.96547179973763L78.75,156.9370969508697L79.875,156.83253794361372L81,156.67396759668677L82.125,156.51360829065865L83.25,155.9525053181375L84.375,156.08778508317968L85.5,155.77354930861233L86.625,156.13680067371268L87.75,156.2162443092869L88.875,156.5489964830922L90,156.7646270986103L91.125,156.8403137769783L92.25,156.92565307880676L93.375,156.90959334311384L94.5,156.98397981367697L95.625,156.97436219096807L96.75,156.98174869463156L97.875,156.98043260341123L99,157.01505075069144L100.125,156.90450289447713L101.25,156.94937852285028L102.375,156.96413779316936L103.5,156.9218969801635L104.625,156.91086725027222L105.75,156.8687521595081L106.875,156.85674750271332L108,156.915366149003L109.125,156.96380572962033L110.25,157.02737533667823L111.375,157.05206861017115L112.5,157.03241169584604L113.625,157.02784422655046L114.75,156.97092501985995L115.875,157.0049064568205L117,157.05428061188042L118.125,157.02445730999656L119.25,157.0320928255484L120.375,157.03905405434003L121.5,157.00261383604567L122.625,156.77157951282183L123.75,156.8225673942749L124.875,156.74440725314588L126,156.7320611172278L127.125,156.77254304945626L128.25,156.95248958311277L129.375,157.0338362521919L130.5,157.1226238005911L131.625,157.1425158753215L132.75,157.19724422957125L133.875,157.16189584584208L135,157.12612426210157L136.125,157.14049134084294L137.25,157.05480384879047L138.375,157.08637498460786L139.5,157.12896845236537L140.625,157.15215600669035L141.75,157.15472162187993L142.875,157.13599295724998L144,157.11425637439243L145.125,157.11231579306573L146.25,157.16278012280236L147.375,157.16180758556584L148.5,157.13217268102258L149.625,157.1314238566847L150.75,157.1467305038435L151.875,157.15975745160057L153,157.16534579522948L154.125,157.17094437006745L155.25,157.18831234112926L156.375,157.2201197821026L157.5,157.24356027624162L158.625,157.25158439887068L159.75,157.2490131171653L160.875,157.19169480746496L162,157.14788595792683L163.125,157.02120890827305L164.25,156.9272374137266L165.375,156.90242514340207L166.5,156.85316978484235L167.625,156.92278132867068L168.75,156.86693501092182L169.875,156.87170075103253L171,156.99221228808165L172.125,157.0175130807523L173.25,157.08236684048703L174.375,157.1770781301505L175.5,157.2321816978947L176.625,157.24787715246202L177.75,157.25399082217095L178.875,157.2695699128332L180,157.28782440385112L181.125,157.2954016229754L182.25,157.3078464113593L183.375,157.30950727464975L184.5,157.29557092802133L185.625,157.29224444714782L186.75,157.29382534423834L187.875,157.2882239862253L189,157.28618541066436L190.125,157.26186667812485L191.25,157.25329465636364L192.375,157.2496223033862L193.5,157.24016896670705L194.625,157.22488010611173L195.75,157.20555189978526L196.875,157.1542136387725L198,157.16690712066094L199.125,157.11442014528438L200.25,157.07444774157676L201.375,157.04726732555235L202.5,157.07439608470304L203.625,156.95066553740372L204.75,156.98263504645246L205.875,157.04320872654594L207,156.85823212985028L208.125,156.7821831665157L209.25,156.68760741533092L210.375,156.83225312964834L211.5,156.9805013743074L212.625,156.95598642434925L213.75,157.06297828433648L214.875,157.11662769677545L216,157.02191622108998L217.125,157.1281876322464L218.25,157.19920664701687L219.375,157.2002615776825L220.5,157.24630430797697L221.625,157.2866484694629L222.75,157.30662300559197L223.875,157.3154796731833L225,157.32088896707623L226.125,157.31795108791388L227.25,157.31951722576986L228.375,157.3236410925565L229.5,157.32466992290693L230.625,157.32566818125997L231.75,157.32513101237663L232.875,157.3234161928734L234,157.32288202806618L235.125,157.3145379851885L236.25,157.31142909279757L237.375,157.31326883947744L238.5,157.30786880733285L239.625,157.29367242343625L240.75,157.28357956822097L241.875,157.26325241311375L243,157.21382057692972L244.125,157.19233781391327L245.25,157.20608316425933L246.375,157.18885685609226L22.5,19.65245285630227L23.625,17.572721133629482L24.75,17.572721133629482L25.875,17.572691828012466L27,17.572721133629482L28.125,17.572721133629482L29.25,17.572706480820983L30.375,17.572721133629482L31.5,17.572721133629482L32.625,17.572721133629482L33.75,17.572706480820983L34.875,17.572706480820983L36,17.572735786438002L37.125,17.572677175203967L38.25,17.572706480820983L39.375,17.572706480820983L40.5,17.572706480820983L41.625,17.572721133629482L42.75,17.572706480820983L43.875,17.572721133629482L45,17.572706480820983L46.125,17.572706480820983L47.25,17.572706480820983L48.375,17.572691828012466L49.5,17.572691828012466L50.625,17.572691828012466L51.75,17.572706480820983L52.875,17.572721133629482L54,17.572706480820983L55.125,17.572706480820983L56.25,17.572691828012466L57.375,17.572706480820983L58.5,17.572721133629482L59.625,17.572706480820983L60.75,17.572706480820983L61.875,17.572721133629482L63,17.572706480820983L64.125,17.572706480820983L65.25,17.572721133629482L66.375,17.572735786438002L67.5,17.572691828012466L68.625,17.572706480820983L69.75,17.572691828012466L70.875,17.572706480820983L72,17.572691828012466L73.125,17.572721133629482L74.25,17.572706480820983L75.375,17.572721133629482L76.5,17.572721133629482L77.625,17.572721133629482L78.75,17.572721133629482L79.875,17.572706480820983L81,17.572706480820983L82.125,17.572721133629482L83.25,17.572721133629482L84.375,17.572721133629482L85.5,17.572721133629482L86.625,17.572721133629482L87.75,17.572706480820983L88.875,17.572691828012466L90,17.572706480820983L91.125,17.572721133629482L92.25,17.572721133629482L93.375,17.572691828012466L94.5,17.572706480820983L95.625,17.572721133629482L96.75,17.572706480820983L97.875,17.572721133629482L99,17.572706480820983L100.125,17.572706480820983L101.25,17.572721133629482L102.375,17.572735786438002L103.5,17.572691828012466L104.625,17.572721133629482L105.75,17.572721133629482L106.875,17.572691828012466L108,17.572691828012466L109.125,17.572691828012466L110.25,17.572706480820983L111.375,17.572706480820983L112.5,17.572706480820983L113.625,17.572706480820983L114.75,17.572721133629482L115.875,17.572706480820983L117,17.572721133629482L118.125,17.572721133629482L119.25,17.572721133629482L120.375,17.572706480820983L121.5,17.572721133629482L122.625,17.572706480820983L123.75,17.572735786438002L124.875,17.572706480820983L126,17.572706480820983L127.125,17.572721133629482L128.25,17.572721133629482L129.375,17.572706480820983L130.5,17.572691828012466L131.625,17.572706480820983L132.75,17.572706480820983L133.875,17.572706480820983L135,17.572721133629482L136.125,17.572677175203967L137.25,17.572721133629482L138.375,17.572721133629482L139.5,17.572721133629482L140.625,17.572706480820983L141.75,17.572706480820983L142.875,17.572691828012466L144,17.572691828012466L145.125,17.572706480820983L146.25,17.572691828012466L147.375,17.572706480820983L148.5,17.572691828012466L149.625,17.572721133629482L150.75,17.572735786438002L151.875,17.572691828012466L153,17.572721133629482L154.125,17.572691828012466L155.25,17.572706480820983L156.375,17.572706480820983L157.5,17.572721133629482L158.625,17.572691828012466L159.75,17.572706480820983L160.875,17.572691828012466L162,17.572706480820983L163.125,17.572721133629482L164.25,17.572706480820983L165.375,17.572721133629482L166.5,17.572706480820983L167.625,17.572706480820983L168.75,17.572721133629482L169.875,17.572706480820983L171,17.572706480820983L172.125,17.572706480820983L173.25,17.572706480820983L174.375,17.572706480820983L175.5,17.572691828012466L176.625,17.572721133629482L177.75,17.572706480820983L178.875,17.572706480820983L180,17.572721133629482L181.125,17.572706480820983L182.25,17.572721133629482L183.375,17.572706480820983L184.5,17.572706480820983L185.625,17.572706480820983L186.75,17.572706480820983L187.875,17.572691828012466L189,17.572721133629482L190.125,17.572691828012466L191.25,17.572721133629482L192.375,17.572691828012466L193.5,17.572721133629482L194.625,17.572721133629482L195.75,17.572721133629482L196.875,17.572706480820983L198,17.572706480820983L199.125,17.572706480820983L200.25,17.572706480820983L201.375,17.572691828012466L202.5,17.572721133629482L203.625,17.572691828012466L204.75,17.572706480820983L205.875,17.572706480820983L207,17.572721133629482L208.125,17.572721133629482L209.25,17.572721133629482L210.375,17.572721133629482L211.5,17.572721133629482L212.625,17.572706480820983L213.75,17.572706480820983L214.875,17.572706480820983L216,17.572677175203967L217.125,17.572721133629482L218.25,17.572721133629482L219.375,17.572735786438002L220.5,17.572706480820983L221.625,17.572706480820983L222.75,17.572706480820983L223.875,17.572706480820983L225,17.572691828012466L226.125,17.572691828012466L227.25,17.572706480820983L228.375,17.572706480820983L229.5,17.572677175203967L230.625,17.572735786438002L231.75,17.572706480820983L232.875,17.572706480820983L234,17.572706480820983L235.125,17.572706480820983L236.25,17.572706480820983L237.375,17.572721133629482L238.5,17.572721133629482L239.625,17.572706480820983L240.75,17.572706480820983L241.875,17.572691828012466L243,17.572721133629482L244.125,17.572706480820983L245.25,17.572735786438002L246.375,17.572721133629482L22.5,17.572721133629482" style="fill: none;" fill="none"></path></g></g></g></g></g></g><g transform="translate(60, 177)" clip-path="url(#clip_1)"><clipPath id="clip_1"><rect width="270" height="23"></rect></clipPath><g><g><line x1="0" y1="0" x2="0" y2="5" style="visibility: inherit;" fill="rgb(0, 0, 0)" stroke="rgb(204, 204, 204)" stroke-width="1px"></line><line x1="22.5" y1="0" x2="22.5" y2="5" style="visibility: inherit;" fill="rgb(0, 0, 0)" stroke="rgb(204, 204, 204)" stroke-width="1px"></line><line x1="45" y1="0" x2="45" y2="5" style="visibility: inherit;" fill="rgb(0, 0, 0)" stroke="rgb(204, 204, 204)" stroke-width="1px"></line><line x1="67.5" y1="0" x2="67.5" y2="5" style="visibility: inherit;" fill="rgb(0, 0, 0)" stroke="rgb(204, 204, 204)" stroke-width="1px"></line><line x1="90" y1="0" x2="90" y2="5" style="visibility: inherit;" fill="rgb(0, 0, 0)" stroke="rgb(204, 204, 204)" stroke-width="1px"></line><line x1="112.5" y1="0" x2="112.5" y2="5" style="visibility: inherit;" fill="rgb(0, 0, 0)" stroke="rgb(204, 204, 204)" stroke-width="1px"></line><line x1="135" y1="0" x2="135" y2="5" style="visibility: inherit;" fill="rgb(0, 0, 0)" stroke="rgb(204, 204, 204)" stroke-width="1px"></line><line x1="157.5" y1="0" x2="157.5" y2="5" style="visibility: inherit;" fill="rgb(0, 0, 0)" stroke="rgb(204, 204, 204)" stroke-width="1px"></line><line x1="180" y1="0" x2="180" y2="5" style="visibility: inherit;" fill="rgb(0, 0, 0)" stroke="rgb(204, 204, 204)" stroke-width="1px"></line><line x1="202.5" y1="0" x2="202.5" y2="5" style="visibility: inherit;" fill="rgb(0, 0, 0)" stroke="rgb(204, 204, 204)" stroke-width="1px"></line><line x1="225" y1="0" x2="225" y2="5" style="visibility: inherit;" fill="rgb(0, 0, 0)" stroke="rgb(204, 204, 204)" stroke-width="1px"></line><line x1="247.5" y1="0" x2="247.5" y2="5" style="visibility: inherit;" fill="rgb(0, 0, 0)" stroke="rgb(204, 204, 204)" stroke-width="1px"></line><line x1="270" y1="0" x2="270" y2="5" style="visibility: inherit;" fill="rgb(0, 0, 0)" stroke="rgb(204, 204, 204)" stroke-width="1px"></line></g><g transform="translate(0, 8)"><text x="0" y="0" dx="0em" dy="0.95em" style="text-anchor: middle; visibility: hidden; font-family: Roboto, sans-serif; font-size: 12px; font-weight: 200;" fill="rgb(33, 33, 33)" stroke="none" stroke-width="1px">-20</text><text x="22.5" y="0" dx="0em" dy="0.95em" style="text-anchor: middle; visibility: inherit; font-family: Roboto, sans-serif; font-size: 12px; font-weight: 200;" fill="rgb(33, 33, 33)" stroke="none" stroke-width="1px">0</text><text x="45" y="0" dx="0em" dy="0.95em" style="text-anchor: middle; visibility: hidden; font-family: Roboto, sans-serif; font-size: 12px; font-weight: 200;" fill="rgb(33, 33, 33)" stroke="none" stroke-width="1px">20</text><text x="67.5" y="0" dx="0em" dy="0.95em" style="text-anchor: middle; visibility: inherit; font-family: Roboto, sans-serif; font-size: 12px; font-weight: 200;" fill="rgb(33, 33, 33)" stroke="none" stroke-width="1px">40</text><text x="90" y="0" dx="0em" dy="0.95em" style="text-anchor: middle; visibility: hidden; font-family: Roboto, sans-serif; font-size: 12px; font-weight: 200;" fill="rgb(33, 33, 33)" stroke="none" stroke-width="1px">60</text><text x="112.5" y="0" dx="0em" dy="0.95em" style="text-anchor: middle; visibility: inherit; font-family: Roboto, sans-serif; font-size: 12px; font-weight: 200;" fill="rgb(33, 33, 33)" stroke="none" stroke-width="1px">80</text><text x="135" y="0" dx="0em" dy="0.95em" style="text-anchor: middle; visibility: hidden; font-family: Roboto, sans-serif; font-size: 12px; font-weight: 200;" fill="rgb(33, 33, 33)" stroke="none" stroke-width="1px">100</text><text x="157.5" y="0" dx="0em" dy="0.95em" style="text-anchor: middle; visibility: inherit; font-family: Roboto, sans-serif; font-size: 12px; font-weight: 200;" fill="rgb(33, 33, 33)" stroke="none" stroke-width="1px">120</text><text x="180" y="0" dx="0em" dy="0.95em" style="text-anchor: middle; visibility: hidden; font-family: Roboto, sans-serif; font-size: 12px; font-weight: 200;" fill="rgb(33, 33, 33)" stroke="none" stroke-width="1px">140</text><text x="202.5" y="0" dx="0em" dy="0.95em" style="text-anchor: middle; visibility: inherit; font-family: Roboto, sans-serif; font-size: 12px; font-weight: 200;" fill="rgb(33, 33, 33)" stroke="none" stroke-width="1px">160</text><text x="225" y="0" dx="0em" dy="0.95em" style="text-anchor: middle; visibility: hidden; font-family: Roboto, sans-serif; font-size: 12px; font-weight: 200;" fill="rgb(33, 33, 33)" stroke="none" stroke-width="1px">180</text><text x="247.5" y="0" dx="0em" dy="0.95em" style="text-anchor: middle; visibility: inherit; font-family: Roboto, sans-serif; font-size: 12px; font-weight: 200;" fill="rgb(33, 33, 33)" stroke="none" stroke-width="1px">200</text><text x="270" y="0" dx="0em" dy="0.95em" style="text-anchor: middle; visibility: hidden; font-family: Roboto, sans-serif; font-size: 12px; font-weight: 200;" fill="rgb(33, 33, 33)" stroke="none" stroke-width="1px">220</text></g><line x1="0" y1="0" x2="270" y2="0" fill="rgb(0, 0, 0)" stroke="rgb(204, 204, 204)" stroke-width="1px"></line></g></g></g></g></svg>